<svg width="160" height="23" viewBox="0 0 160 23" fill="none" xmlns="http://www.w3.org/2000/svg">
<path d="M9.63077 5.37846L10.6277 6.96615L1.93846 12.2954L10.6277 17.6738L9.52 19.1877L0.166154 13.3415V11.2246L9.63077 5.37846ZM22.5995 3.05231V4.76308H18.8333V18.2892H22.5995V20H12.901V18.2892H16.6672V4.76308H12.901V3.05231H22.5995ZM27.2728 7.04V16.2215C27.2728 17.0749 27.4492 17.6903 27.802 18.0677C28.1548 18.4451 28.7046 18.6338 29.4513 18.6338C30.1651 18.6338 30.8379 18.4328 31.4697 18.0308C32.1097 17.6205 32.6061 17.1364 32.9589 16.5785V7.04H35.0266V20H33.2666L33.0943 18.2523C32.5856 18.9087 31.9538 19.4133 31.1989 19.7662C30.4523 20.1108 29.7015 20.2831 28.9466 20.2831C27.6913 20.2831 26.7518 19.9508 26.1282 19.2862C25.5128 18.6133 25.2051 17.6738 25.2051 16.4677V7.04H27.2728ZM37.6938 20V18.4123H39.7123V8.62769H37.6938V7.04H41.2876L41.6692 10.1046C42.1697 9.03795 42.7769 8.21333 43.4907 7.63077C44.2046 7.04821 45.1482 6.75692 46.3215 6.75692C46.6825 6.75692 47.0025 6.78564 47.2815 6.84308C47.5687 6.89231 47.86 6.95795 48.1553 7.04L47.86 11.4215H46.1615V8.66462C46.1287 8.66462 46.0917 8.66462 46.0507 8.66462C44.0651 8.66462 42.6415 10.0841 41.78 12.9231V18.4123H44.4138V20H37.6938ZM54.8471 0.972308C55.3066 0.972308 55.6717 1.11179 55.9425 1.39077C56.2215 1.66974 56.361 2.01026 56.361 2.41231C56.361 2.83077 56.2215 3.18359 55.9425 3.47077C55.6717 3.74974 55.3066 3.88923 54.8471 3.88923C54.4122 3.88923 54.0553 3.74974 53.7763 3.47077C53.4974 3.18359 53.3579 2.83077 53.3579 2.41231C53.3579 2.01026 53.4974 1.66974 53.7763 1.39077C54.0553 1.11179 54.4122 0.972308 54.8471 0.972308ZM56.4963 7.04V18.3631H60.1517V20H50.4287V18.3631H54.4287V8.67692H50.5517V7.04H56.4963ZM85.3999 15.3108C85.3999 16.2872 85.1579 17.1487 84.6737 17.8954C84.1896 18.6421 83.484 19.2287 82.5568 19.6554C81.6379 20.0738 80.522 20.2831 79.2091 20.2831C77.9702 20.2831 76.8461 20.0944 75.8368 19.7169C74.8358 19.3395 73.9784 18.8062 73.2645 18.1169L74.5322 16.6892C75.1148 17.239 75.7876 17.6779 76.5507 18.0062C77.3137 18.3262 78.2122 18.4862 79.2461 18.4862C79.9353 18.4862 80.5794 18.3754 81.1784 18.1538C81.7773 17.9241 82.2614 17.5795 82.6307 17.12C82.9999 16.6523 83.1845 16.0615 83.1845 15.3477C83.1845 14.8062 83.0779 14.3426 82.8645 13.9569C82.6512 13.5631 82.2737 13.2185 81.7322 12.9231C81.1907 12.6195 80.4358 12.3241 79.4676 12.0369C78.3517 11.7087 77.3835 11.3395 76.563 10.9292C75.7507 10.5108 75.1189 10.0021 74.6676 9.40308C74.2245 8.7959 74.003 8.04103 74.003 7.13846C74.003 6.29333 74.2368 5.54256 74.7045 4.88615C75.1722 4.22974 75.8163 3.71692 76.6368 3.34769C77.4655 2.97026 78.4173 2.78154 79.4922 2.78154C80.6655 2.78154 81.683 2.94974 82.5445 3.28615C83.4143 3.61436 84.202 4.09026 84.9076 4.71385L83.6522 6.10462C83.045 5.57128 82.3927 5.18154 81.6953 4.93539C80.9979 4.68923 80.2881 4.56615 79.5661 4.56615C78.6389 4.56615 77.843 4.77128 77.1784 5.18154C76.5137 5.5918 76.1814 6.21949 76.1814 7.06462C76.1814 7.55692 76.3127 7.97949 76.5753 8.33231C76.8379 8.67692 77.2809 8.99692 77.9045 9.29231C78.5281 9.58769 79.3773 9.89128 80.4522 10.2031C81.3302 10.4574 82.1425 10.7774 82.8891 11.1631C83.644 11.5405 84.2512 12.0574 84.7107 12.7138C85.1702 13.3621 85.3999 14.2277 85.3999 15.3108ZM91.944 0.972308C92.4035 0.972308 92.7686 1.11179 93.0394 1.39077C93.3183 1.66974 93.4578 2.01026 93.4578 2.41231C93.4578 2.83077 93.3183 3.18359 93.0394 3.47077C92.7686 3.74974 92.4035 3.88923 91.944 3.88923C91.5091 3.88923 91.1522 3.74974 90.8732 3.47077C90.5942 3.18359 90.4548 2.83077 90.4548 2.41231C90.4548 2.01026 90.5942 1.66974 90.8732 1.39077C91.1522 1.11179 91.5091 0.972308 91.944 0.972308ZM93.5932 7.04V18.3631H97.2486V20H87.5255V18.3631H91.5255V8.67692H87.6486V7.04H93.5932ZM104.445 1.82154V16.8C104.445 17.44 104.642 17.8954 105.036 18.1662C105.438 18.4287 105.955 18.56 106.587 18.56C106.972 18.56 107.341 18.519 107.694 18.4369C108.055 18.3549 108.412 18.2441 108.765 18.1046L109.319 19.6185C108.966 19.7908 108.527 19.9426 108.002 20.0738C107.485 20.2133 106.898 20.2831 106.242 20.2831C105.093 20.2831 104.162 19.9672 103.448 19.3354C102.734 18.6954 102.377 17.8133 102.377 16.6892V3.45846H98.4019V1.82154H104.445ZM122.571 7.04L117.857 20H115.457L110.78 7.04H112.971L116.724 18.1169L120.429 7.04H122.571ZM133.41 17.1692C133.41 17.6944 133.496 18.0759 133.669 18.3138C133.841 18.5518 134.108 18.7241 134.469 18.8308L133.964 20.2831C133.406 20.2092 132.918 20.0328 132.499 19.7538C132.081 19.4667 131.777 19.0359 131.589 18.4615C131.121 19.0605 130.534 19.5159 129.829 19.8277C129.131 20.1313 128.364 20.2831 127.527 20.2831C126.231 20.2831 125.209 19.9179 124.462 19.1877C123.716 18.4574 123.342 17.4892 123.342 16.2831C123.342 14.9456 123.863 13.92 124.905 13.2062C125.948 12.4923 127.453 12.1354 129.422 12.1354H131.33V11.0523C131.33 10.1169 131.055 9.45641 130.505 9.07077C129.964 8.67692 129.209 8.48 128.241 8.48C127.814 8.48 127.314 8.53333 126.739 8.64C126.165 8.73846 125.541 8.90667 124.869 9.14462L124.327 7.58154C125.115 7.28615 125.857 7.07692 126.555 6.95385C127.26 6.83077 127.929 6.76923 128.561 6.76923C130.169 6.76923 131.379 7.14667 132.192 7.90154C133.004 8.65641 133.41 9.67385 133.41 10.9538V17.1692ZM128.056 18.7077C128.696 18.7077 129.303 18.5477 129.878 18.2277C130.46 17.8995 130.944 17.4482 131.33 16.8738V13.5385H129.459C128.032 13.5385 127.022 13.7846 126.432 14.2769C125.849 14.7692 125.558 15.4297 125.558 16.2585C125.558 17.8913 126.391 18.7077 128.056 18.7077ZM137.046 22.5354L135.372 21.7969L145.907 0.0738463L147.557 0.886155L146.338 3.38462L159.015 11.2246V13.3415L149.674 19.1877L148.554 17.6615L157.243 12.2954L145.526 5.07077L137.046 22.5354Z" fill="#97EDAA"/>
</svg>
