<svg width="22" height="22" viewBox="0 0 22 22" fill="none" xmlns="http://www.w3.org/2000/svg">
<path d="M5.99085 2.88913C5.69023 2.88913 5.45403 2.93649 5.28225 3.03122C5.12479 3.12594 5.01027 3.33908 4.93869 3.67061C4.88143 4.00215 4.8528 4.53104 4.8528 5.25727V7.57804C4.8528 8.17797 4.76691 8.69896 4.59513 9.14101C4.43767 9.56728 4.25157 9.9146 4.03684 10.183C3.82212 10.4514 3.62171 10.6566 3.43561 10.7987C3.59308 10.925 3.77917 11.1224 3.9939 11.3907C4.22294 11.6433 4.42335 11.9591 4.59513 12.338C4.76691 12.7011 4.8528 13.1116 4.8528 13.5694V16.4112C4.8528 17.1216 4.88143 17.6426 4.93869 17.9742C5.01027 18.3057 5.12479 18.5188 5.28225 18.6136C5.45403 18.7083 5.69023 18.7557 5.99085 18.7557H6.78533V21.6448H5.089C4.68818 21.6448 4.28736 21.6369 3.88654 21.6211C3.50003 21.6053 3.14215 21.5185 2.81291 21.3606C2.48366 21.2185 2.21883 20.9422 2.01842 20.5318C1.83233 20.1371 1.73928 19.5608 1.73928 18.803V14.8956C1.73928 14.422 1.67486 13.9799 1.54603 13.5694C1.41719 13.1432 1.22394 12.7958 0.966266 12.5275C0.708595 12.2591 0.386506 12.1249 0 12.1249V9.37783C0.386506 9.36204 0.708595 9.22785 0.966266 8.97524C1.22394 8.70685 1.41719 8.36742 1.54603 7.95694C1.67486 7.53068 1.73928 7.08073 1.73928 6.60711V2.86545C1.73928 2.10764 1.83233 1.5314 2.01842 1.13671C2.20452 0.742017 2.45503 0.465735 2.76996 0.307859C3.09921 0.149983 3.46424 0.0631507 3.86506 0.0473621C4.26589 0.0157876 4.67386 0 5.089 0H6.78533V2.88913H5.99085ZM22 11.0118C22 12.6222 21.8211 14.1299 21.4632 15.535C21.1196 16.9401 20.6759 18.1873 20.1319 19.2766C19.5879 20.3818 19.0082 21.2896 18.3926 22L15.9233 20.7449C16.4815 20.0344 16.9826 19.1977 17.4263 18.2347C17.8701 17.2874 18.2208 16.2139 18.4785 15.014C18.7362 13.7984 18.865 12.4643 18.865 11.0118C18.865 9.55938 18.7362 8.23323 18.4785 7.03337C18.2208 5.81773 17.8701 4.73628 17.4263 3.78902C16.9826 2.82598 16.4815 1.99713 15.9233 1.30248L18.3926 0.0236811C19.0082 0.734124 19.5879 1.64191 20.1319 2.74704C20.6759 3.85217 21.1196 5.10729 21.4632 6.51238C21.8211 7.90169 22 9.40151 22 11.0118Z" fill="#97EDAA"/>
</svg>
